<?xml version="1.0" encoding="utf-8"?>
<!-- Svg Vector Icons : http://www.onlinewebfonts.com/icon -->
<!DOCTYPE svg PUBLIC "-//W3C//DTD SVG 1.1//EN" "http://www.w3.org/Graphics/SVG/1.1/DTD/svg11.dtd">
<svg version="1.1" xmlns="http://www.w3.org/2000/svg" xmlns:xlink="http://www.w3.org/1999/xlink" x="0px" y="0px" viewBox="0 0 1000 1000" enable-background="new 0 0 1000 1000" xml:space="preserve">
<metadata> Svg Vector Icons : http://www.onlinewebfonts.com/icon </metadata>
<g><g><path d="M877.5,460.1c-18.1-90.7-98-159.7-196-159.7c-32.7,0-61.7,7.3-87.1,21.8c-43.6-79.9-127-130.7-221.4-130.7c-141.6,0-254.1,112.5-254.1,254.1c0,3.6,0,10.9,0,14.5C53.6,489.1,10,550.8,10,627c0,101.6,79.9,181.5,181.5,181.5h617C910.1,808.5,990,728.7,990,627C990,550.8,942.8,485.5,877.5,460.1z M808.5,772.2h-617c-79.9,0-145.2-65.3-145.2-145.2c0-69,47.2-127,112.5-141.6c-3.6-14.5-3.6-25.4-3.6-39.9c0-119.8,98-217.8,217.8-217.8c94.4,0,174.2,61.7,206.9,145.2c29-21.8,65.3-36.3,101.6-36.3c87.1,0,156.1,65.3,163.3,148.8C906.5,500,953.7,558.1,953.7,627C953.7,706.9,888.4,772.2,808.5,772.2z"/></g><g></g><g></g><g></g><g></g><g></g><g></g><g></g><g></g><g></g><g></g><g></g><g></g><g></g><g></g><g></g></g>
</svg>